<svg width="146" height="70" viewBox="0 0 146 70" fill="none" xmlns="http://www.w3.org/2000/svg">
<rect width="146" height="70" fill="#43C2CC"/>
<path d="M24.6067 46.9746H41.071V54.4583H28.7758L24.6067 46.9746ZM16 17.0393H23.4837V54.4583H16V17.0393Z" fill="#231F20"/>
<path d="M39.7337 20.5744C41.622 20.5744 43.4038 20.9402 45.0796 21.6702C46.7537 22.4007 48.2148 23.39 49.4623 24.6369C50.7097 25.8849 51.6985 27.3455 52.429 29.0202C53.1596 30.6959 53.5254 32.4946 53.5254 34.4193C53.5254 35.4532 53.4183 36.4506 53.2047 37.4127L53.1514 37.5198H39.5734L36.1522 32.0673H46.3086C45.8096 30.5704 44.9807 29.3409 43.8234 28.3788C42.6651 27.4161 41.3019 26.9356 39.7337 26.9356C38.7716 26.9356 37.8628 27.1313 37.0078 27.5216C36.1522 27.9124 35.4124 28.4364 34.789 29.093C34.165 29.7491 33.6752 30.5313 33.3192 31.4368C32.9626 32.3418 32.7843 33.3273 32.7843 34.3927C32.7843 35.2091 32.9447 36.0527 33.2659 36.9224C33.5866 37.7926 34.0492 38.583 34.6553 39.2928C35.2608 40.0027 35.9919 40.5974 36.8474 41.0768C37.7024 41.5568 38.6651 41.7959 39.7337 41.7959C40.6958 41.7959 41.578 41.6622 42.3797 41.3953C43.1815 41.1279 43.9387 40.5316 44.6518 39.6043L44.7051 39.551L44.8122 39.6043L51.0125 42.3351L50.906 42.4433C49.6232 44.2408 47.9925 45.6427 46.0145 46.6483C44.037 47.6544 41.9427 48.1572 39.7337 48.1572C37.809 48.1572 36 47.8006 34.3079 47.088C32.6153 46.3759 31.145 45.3959 29.898 44.1479C28.65 42.9015 27.6608 41.4404 26.9313 39.7652C26.2008 38.09 25.835 36.3082 25.835 34.4193C25.835 32.4946 26.2008 30.6959 26.9313 29.0202C27.6608 27.3455 28.65 25.8849 29.898 24.6369C31.145 23.39 32.6153 22.4007 34.3079 21.6702C36 20.9402 37.809 20.5744 39.7337 20.5744Z" fill="#231F20"/>
<path d="M76.0837 24.1022C76.9746 25.2073 77.6149 26.5972 78.0079 28.2719C78.3998 29.9471 78.5966 32.0137 78.5966 34.4728V47.7301H71.326V34.4385C71.326 33.4378 71.2993 32.4822 71.2461 31.5712C71.1928 30.6608 71.0053 29.8563 70.684 29.16C70.3644 28.4632 69.8469 27.9185 69.1343 27.525C68.4212 27.1326 67.4058 26.9352 66.0872 26.9352C64.8391 26.9352 63.6825 27.2032 62.6127 27.737V27.7908L62.5595 27.737L59.9406 23.1184L59.9933 23.0657C61.8463 21.4051 64.163 20.5746 66.9433 20.5746C71.2194 20.5746 74.2661 21.7503 76.0837 24.1022ZM51.3872 21.0018H58.6573V47.7296H51.3872V21.0018Z" fill="#231F20"/>
<path d="M89.8751 31.8535C91.0508 32.2459 92.1287 32.6471 93.1087 33.0564C94.0887 33.4662 94.9443 33.9565 95.6754 34.5262C96.4048 35.0969 96.9756 35.7823 97.3854 36.5841C97.7952 37.3858 98.0002 38.3397 98.0002 39.4443V39.4975C98.0002 42.2061 97.1 44.327 95.3009 45.8588C93.5011 47.3911 90.9796 48.1575 87.7362 48.1575C85.7054 48.1575 83.709 47.8063 81.75 47.1062C79.7894 46.4061 77.9538 45.4087 76.2438 44.114L76.1899 44.0607L76.2438 44.0063L79.8785 38.268L79.9323 38.3213C81.001 39.4627 82.2126 40.3259 83.5676 40.914C84.9216 41.5016 86.3648 41.7962 87.8965 41.7962C89.9995 41.7962 91.0508 41.1211 91.0508 39.7698C91.0508 39.1301 90.7121 38.6507 90.0354 38.3311C89.3581 38.0109 88.5564 37.7081 87.6302 37.4239C87.4514 37.3537 87.2823 37.3092 87.1225 37.2907C86.9621 37.2733 86.7926 37.2293 86.6143 37.157C85.5451 36.8732 84.4754 36.5618 83.4073 36.2242C82.3381 35.8867 81.3755 35.4241 80.5205 34.8376C79.6649 34.2517 78.961 33.5054 78.4087 32.5987C77.8559 31.6926 77.5804 30.5283 77.5804 29.1053V28.9998C77.5804 27.7545 77.8119 26.6174 78.275 25.5863C78.7381 24.5557 79.3975 23.667 80.253 22.9201C81.108 22.1733 82.1408 21.5966 83.3535 21.1873C84.564 20.7785 85.9011 20.5747 87.3628 20.5747C89.0733 20.5747 90.8013 20.8334 92.5483 21.3493C94.2936 21.8662 95.9156 22.6239 97.4126 23.6213V23.7284L94.1518 29.6619L94.0985 29.6086C93.2777 28.7889 92.2624 28.1383 91.0508 27.6572C89.8397 27.1762 88.5564 26.9354 87.2024 26.9354C86.9524 26.9354 86.6681 26.9539 86.3468 26.9892C86.0261 27.0251 85.7326 27.1142 85.4652 27.2561C85.1978 27.399 84.9749 27.586 84.7966 27.8176C84.6178 28.0497 84.5292 28.3785 84.5292 28.8069C84.5292 29.127 84.6716 29.4211 84.957 29.6885C85.2423 29.9554 85.6071 30.2054 86.0528 30.437C86.4985 30.6691 86.9969 30.8908 87.5503 31.105C88.102 31.3192 88.6455 31.5149 89.1804 31.6931C89.2875 31.6931 89.4027 31.7116 89.5272 31.7464C89.6522 31.7823 89.768 31.8187 89.8751 31.8535Z" fill="#231F20"/>
<path d="M48.3284 32.1887C49.4547 32.1887 50.3673 33.1013 50.3673 34.2275C50.3673 35.3538 49.4547 36.2664 48.3284 36.2664C47.2022 36.2664 46.2896 35.3538 46.2896 34.2275C46.2896 33.1013 47.2022 32.1887 48.3284 32.1887Z" fill="#43C2CC"/>
<path d="M53.4263 26.0715C55.1151 26.0715 56.4849 27.4408 56.4849 29.1301C56.4849 30.819 55.1151 32.1887 53.4263 32.1887C51.7369 32.1887 50.3677 30.819 50.3677 29.1301C50.3677 27.4408 51.7369 26.0715 53.4263 26.0715Z" fill="#43C2CC"/>
</svg>
