<svg width="146" height="70" viewBox="0 0 146 70" fill="none" xmlns="http://www.w3.org/2000/svg">
<rect width="146" height="70" fill="#38405F"/>
<path d="M56.5796 44.4395V26.0119H63.9172C65.3218 26.0119 66.5205 26.2608 67.5134 26.7587C68.5124 27.2506 69.2721 27.9494 69.7928 28.8552C70.3195 29.755 70.5829 30.8137 70.5829 32.0315C70.5829 33.2552 70.3165 34.3079 69.7837 35.1897C69.251 36.0655 68.4791 36.7373 67.468 37.2052C66.463 37.6731 65.2461 37.907 63.8173 37.907H58.9044V34.7758H63.1817C63.9324 34.7758 64.556 34.6738 65.0524 34.4699C65.5488 34.2659 65.9182 33.96 66.1603 33.5521C66.4085 33.1442 66.5326 32.6373 66.5326 32.0315C66.5326 31.4196 66.4085 30.9037 66.1603 30.4838C65.9182 30.0639 65.5458 29.746 65.0433 29.5301C64.5469 29.3081 63.9203 29.1971 63.1635 29.1971H60.5118V44.4395H56.5796ZM66.6235 36.0535L71.2458 44.4395H66.905L62.3825 36.0535H66.6235Z" fill="white"/>
<path d="M78.5503 44.7094C77.1155 44.7094 75.8804 44.4215 74.8451 43.8456C73.8159 43.2637 73.0228 42.4419 72.4658 41.3802C71.9089 40.3125 71.6304 39.0498 71.6304 37.5921C71.6304 36.1705 71.9089 34.9227 72.4658 33.849C73.0228 32.7753 73.8068 31.9385 74.8179 31.3386C75.835 30.7388 77.0277 30.4388 78.3959 30.4388C79.3161 30.4388 80.1728 30.5858 80.9659 30.8797C81.7651 31.1677 82.4613 31.6026 83.0546 32.1844C83.654 32.7663 84.1201 33.4981 84.4531 34.3799C84.7861 35.2557 84.9526 36.2814 84.9526 37.4571V38.5099H73.1742V36.1345H81.311C81.311 35.5826 81.1899 35.0937 80.9477 34.6678C80.7056 34.2419 80.3696 33.909 79.9397 33.669C79.5159 33.4231 79.0225 33.3001 78.4595 33.3001C77.8722 33.3001 77.3516 33.4351 76.8975 33.705C76.4495 33.969 76.0983 34.3259 75.8441 34.7758C75.5898 35.2197 75.4596 35.7146 75.4536 36.2604V38.5189C75.4536 39.2027 75.5807 39.7936 75.835 40.2915C76.0953 40.7894 76.4616 41.1733 76.9338 41.4432C77.4061 41.7131 77.9661 41.8481 78.6139 41.8481C79.0437 41.8481 79.4372 41.7881 79.7944 41.6681C80.1516 41.5482 80.4574 41.3682 80.7116 41.1283C80.9659 40.8883 81.1596 40.5944 81.2928 40.2465L84.8708 40.4804C84.6892 41.3322 84.3169 42.076 83.7539 42.7119C83.1969 43.3417 82.4764 43.8336 81.5925 44.1875C80.7146 44.5354 79.7006 44.7094 78.5503 44.7094V44.7094Z" fill="white"/>
<path d="M99.2261 30.6188L94.3494 44.4395H89.9904L85.1138 30.6188H89.2003L92.0973 40.5075H92.2426L95.1304 30.6188H99.2261Z" fill="white"/>
<path d="M106.235 44.7094C104.8 44.7094 103.565 44.4215 102.53 43.8456C101.5 43.2637 100.707 42.4419 100.15 41.3802C99.5934 40.3125 99.3149 39.0498 99.3149 37.5921C99.3149 36.1705 99.5934 34.9227 100.15 33.849C100.707 32.7753 101.491 31.9385 102.502 31.3386C103.52 30.7388 104.712 30.4388 106.08 30.4388C107.001 30.4388 107.857 30.5858 108.65 30.8797C109.45 31.1677 110.146 31.6026 110.739 32.1844C111.339 32.7663 111.805 33.4981 112.138 34.3799C112.471 35.2557 112.637 36.2814 112.637 37.4571V38.5099H100.859V36.1345H108.996C108.996 35.5826 108.874 35.0937 108.632 34.6678C108.39 34.2419 108.054 33.909 107.624 33.669C107.201 33.4231 106.707 33.3001 106.144 33.3001C105.557 33.3001 105.036 33.4351 104.582 33.705C104.134 33.969 103.783 34.3259 103.529 34.7758C103.274 35.2197 103.144 35.7146 103.138 36.2604V38.5189C103.138 39.2027 103.265 39.7936 103.52 40.2915C103.78 40.7894 104.146 41.1733 104.618 41.4432C105.091 41.7131 105.651 41.8481 106.298 41.8481C106.728 41.8481 107.122 41.7881 107.479 41.6681C107.836 41.5482 108.142 41.3682 108.396 41.1283C108.65 40.8883 108.844 40.5944 108.977 40.2465L112.555 40.4804C112.374 41.3322 112.001 42.076 111.438 42.7119C110.881 43.3417 110.161 43.8336 109.277 44.1875C108.399 44.5354 107.385 44.7094 106.235 44.7094V44.7094Z" fill="white"/>
<path d="M118.276 44.7004C117.386 44.7004 116.593 44.5474 115.897 44.2415C115.2 43.9296 114.65 43.4707 114.244 42.8648C113.844 42.253 113.645 41.4911 113.645 40.5794C113.645 39.8116 113.787 39.1667 114.071 38.6449C114.356 38.123 114.743 37.7031 115.234 37.3851C115.724 37.0672 116.281 36.8273 116.905 36.6653C117.534 36.5034 118.194 36.3894 118.884 36.3234C119.696 36.2394 120.35 36.1614 120.846 36.0895C121.342 36.0115 121.703 35.8976 121.927 35.7476C122.151 35.5976 122.263 35.3756 122.263 35.0817V35.0277C122.263 34.4578 122.081 34.0169 121.718 33.705C121.361 33.3931 120.852 33.2371 120.192 33.2371C119.496 33.2371 118.942 33.3901 118.53 33.696C118.119 33.9959 117.846 34.3738 117.713 34.8297L114.135 34.5418C114.317 33.702 114.674 32.9762 115.207 32.3643C115.739 31.7465 116.426 31.2726 117.268 30.9427C118.116 30.6068 119.096 30.4388 120.21 30.4388C120.985 30.4388 121.727 30.5288 122.435 30.7087C123.15 30.8887 123.782 31.1676 124.333 31.5455C124.89 31.9234 125.329 32.4093 125.65 33.0032C125.971 33.591 126.131 34.2959 126.131 35.1177V44.4394H122.462V42.5229H122.354C122.13 42.9548 121.83 43.3357 121.454 43.6656C121.079 43.9895 120.628 44.2445 120.101 44.4304C119.575 44.6104 118.966 44.7003 118.276 44.7003L118.276 44.7004ZM119.384 42.055C119.953 42.055 120.455 41.9441 120.891 41.7221C121.327 41.4942 121.669 41.1882 121.918 40.8043C122.166 40.4204 122.29 39.9855 122.29 39.4996V38.033C122.169 38.1109 122.002 38.1829 121.79 38.2489C121.585 38.3089 121.351 38.3659 121.091 38.4199C120.831 38.4679 120.57 38.5129 120.31 38.5549C120.05 38.5909 119.814 38.6239 119.602 38.6538C119.148 38.7198 118.751 38.8248 118.412 38.9688C118.073 39.1127 117.81 39.3077 117.622 39.5536C117.434 39.7936 117.341 40.0935 117.341 40.4534C117.341 40.9753 117.531 41.3742 117.913 41.6501C118.3 41.9201 118.791 42.055 119.384 42.055V42.055Z" fill="white"/>
<path d="M132.143 26.0119V44.4395H128.274V26.0119H132.143Z" fill="white"/>
<path d="M31.6992 16C26.7399 16 21.9837 17.952 18.4769 21.4266C14.9701 24.9011 13 29.6136 13 34.5274C12.9999 36.9605 13.4835 39.3699 14.4232 41.6178C15.3628 43.8658 16.7402 45.9083 18.4766 47.6288C20.213 49.3494 22.2744 50.7142 24.5431 51.6453C26.8119 52.5765 29.2435 53.0558 31.6992 53.0558C34.1614 53.0522 36.5986 52.5669 38.871 51.6277L32.5037 40.7007V26.412L23.5488 24.0347L35.1324 24.1767V40.6637L45.6597 46.838C48.7082 43.4484 50.3945 39.0677 50.3984 34.5275C50.3984 29.6137 48.4283 24.9012 44.9215 21.4267C41.4147 17.9521 36.6585 16.0001 31.6992 16.0001V16Z" fill="#FF2E00"/>
</svg>
