<svg width="146" height="70" viewBox="0 0 146 70" fill="none" xmlns="http://www.w3.org/2000/svg">
<rect width="146" height="70" fill="#662C91"/>
<path d="M65 34.4999C65 49.1354 53.1357 60.9998 38.4998 60.9998C23.8643 60.9998 12 49.1354 12 34.4999C12 19.8644 23.8643 8.00008 38.4998 8.00008C53.1357 8.00008 65 19.8644 65 34.4999Z" fill="#662C91"/>
<path d="M26.5881 33.4135C29.0023 33.4135 29.7257 32.7493 29.7257 30.4565C29.7257 28.1332 29.0023 27.5297 26.5881 27.5297L23.2691 27.5601V33.4135H26.5881ZM30.2995 45.0891L28.7303 38.7235C28.3376 37.3959 27.735 36.9733 26.4974 36.9733H23.2691V45.0891H18.7437V24.2716C21.2476 24.03 22.9372 23.9999 26.6787 23.9999C32.1099 23.9999 34.3726 25.3877 34.3726 30.1547C34.3726 33.0812 33.3465 34.9518 30.3902 35.3142V35.4647C31.4454 35.706 32.864 36.4604 33.3465 38.6024L35.1568 45.0891H30.2995Z" fill="white"/>
<path d="M36.4832 30.2149H40.918V45.0891H36.4832V30.2149ZM39.6814 23.6379C40.556 23.6379 40.9789 24.0902 40.9789 24.935V26.5641C40.9789 27.4393 40.556 27.8619 39.6814 27.8619H37.6897C36.8151 27.8619 36.3926 27.4393 36.3926 26.5641V24.935C36.3926 24.0902 36.8151 23.6379 37.6897 23.6379H39.6814Z" fill="#FBB03F"/>
<path d="M55.5814 34.6805C55.5814 29.2193 54.646 27.5902 51.5384 27.5902C50.2099 27.5902 49.0941 27.6203 48.0382 27.6203V41.7099C49.0941 41.7099 50.2711 41.7403 51.5384 41.7403C54.646 41.7403 55.5814 40.1414 55.5814 34.6805ZM60.4087 34.6805C60.4087 42.9174 58.0851 45.3608 51.5384 45.3608C48.4008 45.3608 45.836 45.2403 43.4521 45.0891V24.2716C45.836 24.1207 48.3697 23.9999 51.5384 23.9999C58.0851 23.9999 60.4087 26.4439 60.4087 34.6805Z" fill="white"/>
</svg>
